<?xml version="1.0" encoding="utf-8"?>
<!-- Generator: Adobe Illustrator 25.4.1, SVG Export Plug-In . SVG Version: 6.00 Build 0)  -->
<svg version="1.1" id="Calque_1" xmlns="http://www.w3.org/2000/svg" xmlns:xlink="http://www.w3.org/1999/xlink" x="0px" y="0px"
	 viewBox="0 0 196 196" style="enable-background:new 0 0 196 196;" xml:space="preserve">
<style type="text/css">
	.st0{fill-rule:evenodd;clip-rule:evenodd;}
	.st1{fill-rule:evenodd;clip-rule:evenodd;fill:#FFFFFF;}
</style>
<g>
	<path class="st0" d="M97.9,196.1c54.2,0,98.1-43.9,98.1-98.1C196,43.9,152.1,0,97.9,0C43.7,0-0.2,43.9-0.2,98.1
		C-0.2,152.2,43.7,196.1,97.9,196.1z"/>
	<path class="st1" d="M96,97c0,20.6-16.7,37.3-37.3,37.3S21.4,117.5,21.4,97l0-32.1h17.2V97c0,11.1,9,20.1,20.1,20.1
		s20.1-9,20.1-20.1V22.9L96,5.4L96,97z M117.4,128.5c5.8,3.7,12.4,5.9,19.8,5.9c20.5,0,37.2-16.6,37.2-37.2
		c0-20.5-16.6-37.2-37.2-37.2S100,76.7,100,97.2v93.5l17.2-18L117.4,128.5L117.4,128.5z"/>
	<path class="st0" d="M137.8,118.4c11,0,20-8.9,20-20c0-11-8.9-20-20-20c-11,0-20,8.9-20,20C117.8,109.5,126.7,118.4,137.8,118.4z"
		/>
</g>
</svg>
