<?xml version="1.0" encoding="utf-8"?>
<!-- Generator: Adobe Illustrator 25.4.1, SVG Export Plug-In . SVG Version: 6.00 Build 0)  -->
<svg version="1.1" id="Calque_1" xmlns="http://www.w3.org/2000/svg" xmlns:xlink="http://www.w3.org/1999/xlink" x="0px" y="0px"
	 viewBox="0 0 160 24" style="enable-background:new 0 0 160 24;" xml:space="preserve">
<style type="text/css">
	.st0{fill-rule:evenodd;clip-rule:evenodd;}
	.st1{fill-rule:evenodd;clip-rule:evenodd;fill:#FFFFFF;}
	.st2{font-family:'Ubuntu-Bold';}
	.st3{font-size:22.4825px;}
</style>
<g>
	<path class="st0" d="M12.5,22.6c5.9,0,10.6-4.8,10.6-10.6c0-5.9-4.8-10.6-10.6-10.6C6.7,1.4,1.9,6.1,1.9,12
		C1.9,17.9,6.7,22.6,12.5,22.6z"/>
	<path class="st1" d="M12.3,11.9c0,2.2-1.8,4-4,4s-4-1.8-4-4l0-3.5h1.9v3.5c0,1.2,1,2.2,2.2,2.2s2.2-1,2.2-2.2v-8L12.3,2L12.3,11.9z
		 M14.7,15.3c0.6,0.4,1.3,0.6,2.1,0.6c2.2,0,4-1.8,4-4c0-2.2-1.8-4-4-4s-4,1.8-4,4V22l1.9-2L14.7,15.3L14.7,15.3z"/>
	<path class="st0" d="M16.9,14.2c1.2,0,2.2-1,2.2-2.2c0-1.2-1-2.2-2.2-2.2c-1.2,0-2.2,1-2.2,2.2C14.7,13.2,15.7,14.2,16.9,14.2z"/>
</g>
<text transform="matrix(1 0 0 1 28.1467 19.0317)" class="st2 st3">Up Toolkit</text>
</svg>
